<?xml version="1.0" ?><svg data-name="filled outline" id="filled_outline" viewBox="0 0 512 512" xmlns="http://www.w3.org/2000/svg"><path d="M266.19867,480.311l10.83516-37.92305a17.68677,17.68677,0,0,1,13.55574-12.488h0a17.6868,17.6868,0,0,1,17.30284,6.34986l24.52495,30.89246a10.60582,10.60582,0,0,0,12.36517,3.20414h0a10.60581,10.60581,0,0,0,6.47782-11.00916l-4.50251-39.186a17.6868,17.6868,0,0,1,7.74492-16.725h0a17.68678,17.68678,0,0,1,18.41572-.755l34.48013,19.15562a10.60582,10.60582,0,0,0,12.6501-1.77171h0a10.60583,10.60583,0,0,0,1.77171-12.6501l-19.15563-34.48012a17.6868,17.6868,0,0,1,.755-18.41572v0a17.68678,17.68678,0,0,1,16.725-7.74493l39.186,4.50252a10.60584,10.60584,0,0,0,11.00917-6.47783h0a10.60583,10.60583,0,0,0-3.20413-12.36518l-30.89247-24.52494a17.6868,17.6868,0,0,1-6.34985-17.30284v0a17.68681,17.68681,0,0,1,12.488-13.55575l37.92621-10.83606A10.60582,10.60582,0,0,0,488,256.0063h0a10.60582,10.60582,0,0,0-7.69218-10.19776l-37.92621-10.83606a17.68681,17.68681,0,0,1-12.488-13.55575v0a17.6868,17.6868,0,0,1,6.34985-17.30284l30.89247-24.52494a10.60583,10.60583,0,0,0,3.20413-12.36518h0a10.60583,10.60583,0,0,0-11.00916-6.47783l-39.186,4.50252a17.6868,17.6868,0,0,1-16.725-7.74492v0a17.68682,17.68682,0,0,1-.755-18.41573l19.15563-34.48012a10.60583,10.60583,0,0,0-1.77171-12.6501h0a10.60582,10.60582,0,0,0-12.6501-1.77171l-34.48013,19.15562a17.6868,17.6868,0,0,1-18.41572-.755l0,0a17.68677,17.68677,0,0,1-7.74492-16.725l4.50251-39.186a10.60581,10.60581,0,0,0-6.47782-11.00916h0a10.60582,10.60582,0,0,0-12.36517,3.20414L307.89243,75.76284a17.68678,17.68678,0,0,1-17.30284,6.34986h0a17.68677,17.68677,0,0,1-13.55574-12.488l-10.837-37.92935a10.60583,10.60583,0,0,0-10.19359-7.69218h0a10.60584,10.60584,0,0,0-10.20194,7.69218L234.96617,69.61839a17.68678,17.68678,0,0,1-13.55574,12.488h0a17.68679,17.68679,0,0,1-17.30284-6.34985l-24.525-30.89247A10.60582,10.60582,0,0,0,167.21745,41.66h0a10.60582,10.60582,0,0,0-6.47782,11.00917l4.50251,39.186a17.6868,17.6868,0,0,1-7.74492,16.725h0a17.6868,17.6868,0,0,1-18.41572.755L104.60133,90.17951a10.60583,10.60583,0,0,0-12.6501,1.77171h0a10.60583,10.60583,0,0,0-1.77171,12.6501l19.15563,34.48013a17.6868,17.6868,0,0,1-.755,18.41572v0a17.6868,17.6868,0,0,1-16.725,7.74492l-39.186-4.50251A10.60582,10.60582,0,0,0,41.66,167.21743v0a10.60582,10.60582,0,0,0,3.20413,12.36517l30.89247,24.525a17.68679,17.68679,0,0,1,6.34985,17.30284v0a17.68678,17.68678,0,0,1-12.488,13.55574L31.69218,245.80223A10.60583,10.60583,0,0,0,24,256v0a10.60583,10.60583,0,0,0,7.69218,10.19776l37.92621,10.83606a17.68678,17.68678,0,0,1,12.488,13.55574v0a17.68679,17.68679,0,0,1-6.34985,17.30284L44.86408,332.41738A10.60582,10.60582,0,0,0,41.66,344.78255v0a10.60582,10.60582,0,0,0,11.00917,6.47782l39.186-4.50251a17.6868,17.6868,0,0,1,16.725,7.74492v0a17.6868,17.6868,0,0,1,.755,18.41572L90.17951,407.39867a10.60583,10.60583,0,0,0,1.77171,12.6501h0a10.60583,10.60583,0,0,0,12.6501,1.77171l34.48013-19.15563a17.6868,17.6868,0,0,1,18.41572.755h0a17.6868,17.6868,0,0,1,7.74492,16.725l-4.50251,39.186a10.60582,10.60582,0,0,0,6.47782,11.00917h0a10.60582,10.60582,0,0,0,12.36517-3.20413l24.525-30.89247a17.68679,17.68679,0,0,1,17.30284-6.34985h0a17.68678,17.68678,0,0,1,13.55574,12.488l10.837,37.92935a10.60585,10.60585,0,0,0,10.19359,7.69219h0A10.60584,10.60584,0,0,0,266.19867,480.311Z" style="fill:#02c26a"/><path d="M153.14844,247.70117,113.7998,216.46289a18.60595,18.60595,0,0,1,13.69239-33.05615l49.91308,5.73486-1.82617,15.89551L125.666,199.30225a2.60577,2.60577,0,0,0-1.918,4.62939l39.34961,31.23828Z"/><path d="M125.39062,328.71387a18.6048,18.6048,0,0,1-11.58984-33.17676l39.34766-31.23828,9.94922,12.53125L123.749,308.06836a2.60536,2.60536,0,0,0,1.917,4.62939l49.91308-5.73486,1.82617,15.89551-49.91308,5.73486A18.46725,18.46725,0,0,1,125.39062,328.71387Z"/><path d="M201.84277,405.22412a18.46677,18.46677,0,0,1-7.07226-1.40332,18.68282,18.68282,0,0,1-11.36328-19.31445l5.73437-49.91162,15.89453,1.82617-5.73437,49.9126a2.60583,2.60583,0,0,0,4.62988,1.91748l31.23828-39.34815,12.53125,9.94824-31.23828,39.34864A18.68349,18.68349,0,0,1,201.84277,405.22412Z"/><path d="M310.15723,405.22412a18.68008,18.68008,0,0,1-14.62012-7.02392l-31.23828-39.34913,12.53125-9.94824,31.23828,39.34863a2.606,2.606,0,0,0,4.62988-1.917l-5.73437-49.91357,15.89453-1.82617,5.73437,49.91259a18.6823,18.6823,0,0,1-11.36328,19.31348A18.4632,18.4632,0,0,1,310.15723,405.22412Z"/><path d="M386.60938,328.71387a18.35513,18.35513,0,0,1-2.10157-.12061l-49.91308-5.73486,1.82617-15.89551,49.91308,5.73486a2.60577,2.60577,0,0,0,1.918-4.62939l-39.34961-31.23828,9.94922-12.53125,39.34864,31.23828a18.60525,18.60525,0,0,1-11.59082,33.17676Z"/><path d="M358.85156,247.70117l-9.94922-12.53125L388.251,203.93164a2.60536,2.60536,0,0,0-1.917-4.62939l-49.91308,5.73486-1.82617-15.89551,49.91308-5.73486a18.60553,18.60553,0,0,1,13.69141,33.05615Z"/><path d="M322.8584,177.40527l-15.89453-1.82617,5.73437-49.9126a2.60583,2.60583,0,0,0-4.62988-1.91748l-31.23828,39.34815-12.53125-9.94824,31.23828-39.34864a18.60541,18.60541,0,0,1,33.05566,13.69336Z"/><path d="M189.1416,177.40527l-5.73437-49.91259a18.60555,18.60555,0,0,1,33.05566-13.69288l31.23828,39.34913-12.53125,9.94824-31.23828-39.34863a2.606,2.606,0,0,0-4.62988,1.917l5.73437,49.91357Z"/><path d="M267.73633,218.19775l-9.23047-32.30761a2.60652,2.60652,0,0,0-5.0127.00146l-9.22949,32.30615-15.38476-4.3955,9.23047-32.30762a18.60627,18.60627,0,0,1,35.78027-.00147l9.23144,32.30909Z"/><path d="M213.80176,283.12109l-32.30762-9.231a18.606,18.606,0,0,1,.001-35.78028l32.30664-9.231,4.39648,15.38476-32.30762,9.231a2.6055,2.6055,0,0,0-.001,5.01074l32.30859,9.231Z"/><path d="M256,344a18.68622,18.68622,0,0,1-17.88965-13.49316l-9.23144-32.30909,15.38476-4.3955,9.23047,32.30761a2.60652,2.60652,0,0,0,5.0127-.00146l9.22949-32.30615,15.38476,4.3955-9.23047,32.30762A18.68783,18.68783,0,0,1,256,344Z"/><path d="M298.19824,283.12109l-4.39648-15.38476,32.30762-9.231a2.6055,2.6055,0,0,0,.001-5.01074l-32.30859-9.231,4.39648-15.38476,32.30762,9.231a18.606,18.606,0,0,1-.001,35.78028Z"/><path d="M256.001,496.00293h-.00684a18.68669,18.68669,0,0,1-17.88379-13.49365l-10.83691-37.92969a9.68617,9.68617,0,0,0-16.90039-3.36182l-24.52442,30.89209a18.60676,18.60676,0,0,1-33.05761-13.6914l4.5039-39.18653a9.68765,9.68765,0,0,0-14.32812-9.57373l-34.48047,19.15528a18.60562,18.60562,0,0,1-25.29981-25.3003l19.15528-34.48a9.68636,9.68636,0,0,0-9.57325-14.32763L53.582,359.208a18.60532,18.60532,0,0,1-13.69141-33.05615L70.78223,301.627a9.6868,9.6868,0,0,0-3.36231-16.90088L29.49414,273.89014a18.606,18.606,0,0,1,.001-35.78028l37.9248-10.83593a9.68715,9.68715,0,0,0,3.36231-16.90137L39.89062,185.84814A18.60553,18.60553,0,0,1,53.582,152.792l39.18652,4.50244a9.687,9.687,0,0,0,9.57325-14.32763l-19.15528-34.48a18.60549,18.60549,0,0,1,25.29981-25.3003l34.47949,19.15528a9.6877,9.6877,0,0,0,14.3291-9.57325L152.792,53.582a18.606,18.606,0,0,1,33.05664-13.69189l24.52442,30.89209a9.68617,9.68617,0,0,0,16.90039-3.36182l10.83594-37.92285A18.68341,18.68341,0,0,1,256,16.00293h.00586a18.688,18.688,0,0,1,17.88379,13.49414l10.83691,37.92969A9.68617,9.68617,0,0,0,301.627,70.78857l24.52442-30.89209A18.60643,18.60643,0,0,1,359.209,53.58789l-4.5039,39.18652a9.6873,9.6873,0,0,0,14.32812,9.57373l34.48047-19.15527a18.60561,18.60561,0,0,1,25.29981,25.30029l-19.15528,34.48a9.68636,9.68636,0,0,0,9.57325,14.32764l39.18652-4.50244a18.6054,18.6054,0,0,1,13.69141,33.05615l-30.89161,24.5249a9.68731,9.68731,0,0,0,3.36231,16.90137l37.92578,10.83545a18.606,18.606,0,0,1-.001,35.78027l-37.9248,10.83594a9.68715,9.68715,0,0,0-3.36231,16.90137l30.89161,24.52441A18.60553,18.60553,0,0,1,458.418,359.21436l-39.18652-4.50245a9.687,9.687,0,0,0-9.57325,14.32764l19.15528,34.48a18.60548,18.60548,0,0,1-25.29981,25.30029l-34.47949-19.15527a9.6877,9.6877,0,0,0-14.3291,9.57324l4.50293,39.18653a18.606,18.606,0,0,1-33.05664,13.69189L301.627,441.22363a9.68657,9.68657,0,0,0-16.90039,3.36182l-10.83594,37.92334v-.001A18.68152,18.68152,0,0,1,256.001,496.00293Zm-38.09082-74.456a25.93546,25.93546,0,0,1,5.06054.50048,25.58676,25.58676,0,0,1,19.6875,18.13672l10.83692,37.9292A2.61709,2.61709,0,0,0,256,480.00293h.001a2.615,2.615,0,0,0,2.50488-1.88867v-.001l10.83594-37.92334a25.6871,25.6871,0,0,1,44.8164-8.91455L338.68262,462.168a2.606,2.606,0,0,0,4.62988-1.918l-4.502-39.18555a25.68716,25.68716,0,0,1,37.99414-25.38623L411.2832,414.8335a2.6059,2.6059,0,0,0,3.54395-3.54346l-19.15527-34.48a25.68711,25.68711,0,0,1,25.38574-37.99365l39.18652,4.50244a2.606,2.606,0,0,0,1.918-4.6294l-30.89356-24.5249a25.68691,25.68691,0,0,1,8.915-44.81641l37.92579-10.83642a2.6055,2.6055,0,0,0,.001-5.01074L440.18359,242.665a25.68707,25.68707,0,0,1-8.915-44.81641l30.89258-24.52539a2.60535,2.60535,0,0,0-1.917-4.62939l-39.18652,4.50244a25.68644,25.68644,0,0,1-25.38574-37.99365l19.15527-34.48047a2.60573,2.60573,0,0,0-3.54395-3.543l-34.47949,19.15527a25.68672,25.68672,0,0,1-37.99316-25.38623l4.50293-39.186a2.60633,2.60633,0,0,0-4.63086-1.91748L314.1582,80.73682a25.6867,25.6867,0,0,1-44.8164-8.91455l-10.83692-37.9292A2.61694,2.61694,0,0,0,256,32.00293h-.001a2.61549,2.61549,0,0,0-2.50488,1.88916L242.6582,71.81592a25.68669,25.68669,0,0,1-44.8164,8.91455L173.31738,49.83838a2.60587,2.60587,0,0,0-4.62988,1.918l4.50195,39.18554a25.68682,25.68682,0,0,1-37.99414,25.38623L100.7168,97.17285a2.6059,2.6059,0,0,0-3.544,3.54346l19.15527,34.48a25.68711,25.68711,0,0,1-25.38574,37.99365L51.75586,168.6875a2.606,2.606,0,0,0-1.918,4.62939L80.73145,197.8418a25.68742,25.68742,0,0,1-8.915,44.81689L33.89062,253.49463a2.6055,2.6055,0,0,0-.001,5.01074l37.92676,10.83594a25.687,25.687,0,0,1,8.915,44.8164l-30.89258,24.5254a2.60535,2.60535,0,0,0,1.917,4.62939l39.18652-4.50244a25.68643,25.68643,0,0,1,25.38574,37.99365l-19.15527,34.48a2.606,2.606,0,0,0,3.544,3.54346l34.47949-19.15527a25.68671,25.68671,0,0,1,37.99316,25.38623l-4.50293,39.186a2.60667,2.60667,0,0,0,4.63086,1.91748l24.52442-30.89209A25.57207,25.57207,0,0,1,217.91016,421.54688Z"/></svg>