<svg id="Layer_1" xmlns="http://www.w3.org/2000/svg" width="206.5" height="166.4" viewBox="0 0 206.5 166.4"><style>.st0{fill:#ed1b5d}</style><path class="st0" d="M197 97.7l.7-.5-.8-.4C162.3 80.1 129.4 61.1 99 40.4l-.3-.2-.3.2-12 7.2C66 32.1 47.1 16.1 30.1 0H0c17.6 21.2 37.7 42.3 60.2 62.8 3.8-2 7.6-4 11.3-6.1l.2.1c27.7 23.1 58.1 44.6 90.2 64-5 3.2-10 6.3-15.1 9.4 18.9 12.6 38.9 24.7 59.8 36.2v-45c-8.5-4.2-16.8-8.6-24.9-13 5.1-3.5 10.3-7.1 15.3-10.7zM150.5 6l.2.1c17.9 10.8 36.6 20.8 55.9 30.2V4c-3-1.3-6.1-2.7-9.1-4h-77.3c6.5 4.6 13.1 9.2 19.9 13.7 3.4-2.5 6.9-5.1 10.4-7.7z"/></svg>