<svg xmlns="http://www.w3.org/2000/svg" height="101" width="1080" viewBox="0 0 1079.4 101"><style>.st0{fill:none}.st1{fill:#37003c}</style><g id="Safe_Area" fill="none"><path class="st0" d="M1190 163v-30h-30v-14h70v48h-10v-34h-20v30zM3090 160v-31h-40v-13h80v48h-10v-35h-20v31zM2520-42.3h-30v34.8h-10v-76.3h40v12.7h-30V-55h30zM2520 303h-30v34h-10v-76h40v13h-30v16h30zM2340 160v-31h-30v-13h80v48h-20v-35h-10v31zM34.8 138v-31H0V93.6h76.3V142H63.6v-35H47.5v31zM464 34.8h30V0h14v76.3h-48V63.6h34V47.5h-30zM979 212h31v-35h10v77h-45v-13h35v-16h-31z" transform="translate(-76.3 -76.3)"/></g><g fill="#37003c" id="Logo"><path class="st1" d="M463 153V76.7h24.2c15.7 0 27.6 9.4 27.6 25.5 0 16.3-11.6 25.9-27.6 25.9h-9.4V153H463zm14.8-39.2h8.6c7.5 0 12.9-4.1 12.9-11.6s-5.4-11.4-12.9-11.4h-8.6v23zm210-11.1h13.9v50.2h-13.9v-50.2zm7.1-6.7c-4.9 0-8.6-3.7-8.6-8.4 0-4.9 3.7-8.6 8.6-8.6s8.6 3.7 8.6 8.6c0 4.6-3.7 8.4-8.6 8.4M667 153h13.9v-32.1c0-11.4-7.3-19.5-18-19.5-3.7 0-9.7.6-14.6 7.5l-.4.6-.4-.6c-3.4-5.1-8.2-7.5-14.1-7.5-9.4 0-12.4 7.9-12.4 7.9l-1.5-6.6h-12.2v50.2h13.9v-29.4c0-5.6 2.8-9 8.2-9 4.7 0 7.7 3.4 7.7 8.8v29.6H651v-29.4c0-5.6 2.8-9 8.2-9 4.7 0 7.7 3.4 7.7 8.8V153zm111 0v-25.3c0-8.1 4.7-12.2 11.4-12.2 1.7 0 3.2.2 4.9.6v-13.3c-1.3-.4-2.6-.6-3.9-.6-6 0-10.5 3.2-12.7 7.9l-1.5-7.3h-12V153H778zm-244 0v-25.3c0-8.1 4.7-12.2 11.4-12.2 1.7 0 3.2.2 4.9.6v-13.3c-1.3-.4-2.6-.6-3.9-.6-6 0-10.5 3.2-12.7 7.9l-1.5-7.3h-12V153H534zm201 1.3c-15.6 0-27-10.7-27-26.2 0-14.1 10.3-26.6 26.6-26.6 12.2 0 24.7 9.2 24.7 26.2 0 1.3 0 3-.4 4.9h-36.7c1.3 5.6 6.4 9.4 12.6 9.4 5.6 0 9.9-2.1 13.5-5.8l8.4 8.6c-5.4 6.1-13.3 9.5-21.7 9.5m-.8-40.7c-5.8 0-10.7 3.4-11.8 8.8h23.2c-1-5.2-5.7-8.8-11.4-8.8m-156 40.7c-15.6 0-27-10.7-27-26.2 0-14.1 10.3-26.6 26.6-26.6 12.2 0 24.7 9.2 24.7 26.2 0 1.3 0 3-.4 4.9h-36.7c1.3 5.6 6.4 9.4 12.6 9.4 5.6 0 9.9-2.1 13.5-5.8l8.4 8.6c-5.4 6.1-13.3 9.5-21.7 9.5m-.8-40.7c-5.8 0-10.7 3.4-11.8 8.8h23.2c-1.1-5.2-5.7-8.8-11.4-8.8m498 40.7c10.9 0 24.6-6 24.6-24.7v-26.8h-13.9v25.9c0 8.1-4.5 12.4-10.7 12.4-6.7 0-10.7-3.7-10.7-12.4v-25.9h-13.9v26.8c0 18.7 13.5 24.7 24.6 24.7m-119 0c-13.3 0-24.9-12.2-24.9-26.4 0-14.1 11.6-25.9 24.9-25.9 7.5 0 12.6 2.6 15.6 7.3l1.5-6.6h12.2v50.2h-12.2l-1.5-6.4c-3.1 4.6-8.7 7.8-15.6 7.8m2.8-39.8c-7.5 0-13.1 5.6-13.1 13.3 0 7.3 5.6 13.1 13.1 13.1 7.3 0 12.9-5.8 12.9-13.1 0-7.6-5.6-13.3-12.9-13.3M872.4 153v-14.1h-32.2V76.7h-14.8V153h47zm30 1.3c-15.6 0-27-10.7-27-26.2 0-14.1 10.3-26.6 26.6-26.6 12.2 0 24.7 9.2 24.7 26.2 0 1.3 0 3-.4 4.9h-36.7c1.3 5.6 6.4 9.4 12.6 9.4 5.6 0 9.9-2.1 13.5-5.8l8.4 8.6c-5.4 6.1-13.3 9.5-21.7 9.5m-.8-40.7c-5.8 0-10.7 3.4-11.8 8.8H913c-1.1-5.2-5.7-8.8-11.4-8.8m231 40.7c-15.6 0-27-10.7-27-26.2 0-14.1 10.3-26.6 26.6-26.6 12.2 0 24.7 9.2 24.7 26.2 0 1.3 0 3-.4 4.9h-36.7c1.3 5.6 6.4 9.4 12.6 9.4 5.6 0 9.9-2.1 13.5-5.8l8.4 8.6c-5.4 6.1-13.3 9.5-21.7 9.5m-.8-40.7c-5.8 0-10.7 3.4-11.8 8.8h23.2c-1.1-5.2-5.7-8.8-11.4-8.8m-113 .9c-7.3 0-13.1 5.6-13.1 13.3 0 7.3 5.8 13.1 13.1 13.1s13.1-5.8 13.1-13.1c0-7.6-5.8-13.3-13.1-13.3m12.4-5.4l1.5-6.4h12.2v48c0 9.4-2.6 15.9-8.8 20.8-4.7 3.6-11.1 6.2-18.7 6.2-10.5 0-18-3.6-24-9.4l7.7-10.7c3.7 3.6 8.8 6.7 15.4 6.7 10.3 0 14.8-5.1 14.8-12.6v-3.6c-4.1 4.3-9 6-14.4 6-14.2 0-25.5-11.6-25.5-26.4 0-14.6 11.6-25.9 25.9-25.9 5.6.2 10.9 3 13.9 7.3M235 124v28.6h-13.1v-27.2c0-7.8-3.6-11.7-9.8-11.7-6.9 0-11.8 5-11.8 15.6v23.3h-13.1v-50.3h11.7l1.3 5.9c3.5-4.4 8.5-6.7 14.6-6.7 12.4 0 20.2 8.7 20.2 22.5zM278 150c-4 2.2-9 3.6-14.2 3.6-11.2 0-18-6.4-18-16.9v-22.6h-8v-11.6h8l2-14.5h11.1v14.5h17.7v11.6h-17.7v20.7c0 4.3 2.1 6.5 6.5 6.5 2.6 0 5.6-.9 8.4-2.3l4.2 11zM332 103v50.3h-11.7l-1.2-5.4c-3.8 3.8-9.4 6.2-15.7 6.2-14.1 0-24.2-10.7-24.2-25.8v-.4c0-15.1 10.1-25.8 24.2-25.8 6.3 0 11.9 2.4 15.7 6.2l1.2-5.4H332zm-13.1 25.6v-1c0-8.6-6.4-13.4-13.4-13.4-7.7 0-13.2 6-13.2 13.7v.4c0 7.7 5.5 13.7 13.2 13.7 7 0 13.4-4.8 13.4-13.4zM343 138c3.5 2.8 8.1 4.5 12.7 4.5 4.2 0 6.7-1.3 6.7-3.7 0-7.4-24-4.3-24-21.7 0-9.2 7.5-15.4 18.8-15.4 6.5 0 12.7 2 17.7 5.7l-6.3 9.8c-3.5-2.8-7.5-4.4-11.6-4.4-3.7 0-5.5 1.4-5.5 3.3 0 6.9 24 3.8 24 21.7 0 9.4-8.1 15.8-20.1 15.8-6.8 0-13.3-1.8-18.2-5L343 138zM435 103l-21 54.1c-5.3 13.7-13 18.1-24.3 18.1-1.9 0-3.9-.2-5.4-.7l1.7-13c1 .2 2 .3 3.3.3 5.6 0 9.2-1.5 11.4-6.8l-22.6-51.9h14.6l15.1 35.4 12.9-35.4H435zM150 154c-13.3 0-24.9-12.2-24.9-26.4 0-14.1 11.6-25.9 24.9-25.9 7.5 0 12.6 2.6 15.6 7.3l1.5-6.6h12.2v50.2h-12.2l-1.5-6.4c-3 4.6-8.6 7.8-15.6 7.8m2.8-39.7c-7.5 0-13.1 5.6-13.1 13.3 0 7.3 5.6 13.1 13.1 13.1 7.3 0 12.9-5.8 12.9-13.1.1-7.7-5.5-13.3-12.9-13.3M89.9 89.3v16.1h30.7v12.7H89.9v34.8H76.3V76.6h48v12.7H89.9z" transform="translate(-76.3 -76.3)"/></g></svg>